HIERARCHY
ROOT Hips
{
	OFFSET 0.000000 97.420761 0.000000
	CHANNELS 6 Xposition Yposition Zposition Xrotation Yrotation Zrotation
	JOINT RightUpLeg
	{
		OFFSET -8.571318 0.002251 -0.000250
		CHANNELS 6 Xposition Yposition Zposition Xrotation Yrotation Zrotation
		JOINT RightLeg
		{
			OFFSET 0.000000 -44.326080 -0.000105
			CHANNELS 6 Xposition Yposition Zposition Xrotation Yrotation Zrotation
			JOINT RightFoot
			{
				OFFSET 0.000000 -43.324329 -0.000176
				CHANNELS 6 Xposition Yposition Zposition Xrotation Yrotation Zrotation
				JOINT RightToeBase
				{
					OFFSET 0.000000 -7.938133 18.050686
					CHANNELS 6 Xposition Yposition Zposition Xrotation Yrotation Zrotation
					End Site
					{
						OFFSET 0.000000 0.000000 19.719055
					}
				}
			}
		}
	}
	JOINT LeftUpLeg
	{
		OFFSET 8.571318 -0.000084 0.000009
		CHANNELS 6 Xposition Yposition Zposition Xrotation Yrotation Zrotation
		JOINT LeftLeg
		{
			OFFSET 0.000000 -44.326080 -0.000105
			CHANNELS 6 Xposition Yposition Zposition Xrotation Yrotation Zrotation
			JOINT LeftFoot
			{
				OFFSET 0.000000 -43.324329 -0.000176
				CHANNELS 6 Xposition Yposition Zposition Xrotation Yrotation Zrotation
				JOINT LeftToeBase
				{
					OFFSET 0.000000 -7.938133 18.050686
					CHANNELS 6 Xposition Yposition Zposition Xrotation Yrotation Zrotation
					End Site
					{
						OFFSET 0.000000 0.000000 19.719055
					}
				}
			}
		}
	}
	JOINT Spine
	{
		OFFSET 0.000000 10.422829 -1.158092
		CHANNELS 6 Xposition Yposition Zposition Xrotation Yrotation Zrotation
		JOINT Spine1
		{
			OFFSET 0.000000 11.587624 0.000000
			CHANNELS 3 Xrotation Yrotation Zrotation
			JOINT Spine2
			{
				OFFSET 0.000000 10.579559 -0.000443
				CHANNELS 6 Xposition Yposition Zposition Xrotation Yrotation Zrotation
				JOINT Spine3
				{
					OFFSET 0.000000 10.567749 -0.000444
					CHANNELS 6 Xposition Yposition Zposition Xrotation Yrotation Zrotation
					JOINT LeftShoulder
					{
						OFFSET 3.218383 8.290512 0.000000
						CHANNELS 6 Xposition Yposition Zposition Xrotation Yrotation Zrotation
						JOINT LeftArm
						{
							OFFSET 15.038529 0.000000 0.000000
							CHANNELS 3 Xrotation Yrotation Zrotation
							JOINT LeftForeArm
							{
								OFFSET 32.129166 0.000000 0.000000
								CHANNELS 3 Xrotation Yrotation Zrotation
								JOINT LeftHand
								{
									OFFSET 26.275406 0.000000 0.000000
									CHANNELS 3 Xrotation Yrotation Zrotation
									End Site
									{
										OFFSET 26.275406 0.000000 0.000000
									}
								}
							}
						}
					}
					JOINT RightShoulder
					{
						OFFSET -3.218383 8.290512 0.000000
						CHANNELS 6 Xposition Yposition Zposition Xrotation Yrotation Zrotation
						JOINT RightArm
						{
							OFFSET -15.038529 0.000000 0.000000
							CHANNELS 3 Xrotation Yrotation Zrotation
							JOINT RightForeArm
							{
								OFFSET -32.129166 0.000000 0.000000
								CHANNELS 3 Xrotation Yrotation Zrotation
								JOINT RightHand
								{
									OFFSET -26.275406 0.000000 0.000000
									CHANNELS 3 Xrotation Yrotation Zrotation
									End Site
									{
										OFFSET -26.275406 0.000000 0.000000
									}
								}
							}
						}
					}
					JOINT Neck
					{
						OFFSET 0.000000 14.789474 0.000000
						CHANNELS 6 Xposition Yposition Zposition Xrotation Yrotation Zrotation
						JOINT Head
						{
							OFFSET 0.000000 9.838806 0.000953
							CHANNELS 6 Xposition Yposition Zposition Xrotation Yrotation Zrotation
							End Site
							{
								OFFSET 0.000000 9.838806 0.000000
							}
						}
					}
				}
			}
		}
	}
}
MOTION
Frames: 5
Frame Time: 0.016667
11.529499 59.732399 -42.364292 -28.062659 -10.363379 -4.289843 -8.571319 0.002250 -0.000247 -49.307009 -1.503819 -1.518992 0.000001 -44.326080 -0.000106 100.521294 0.006063 0.279328 0.000001 -43.324326 -0.000178 -9.635728 7.205838 8.494149 -0.000001 -7.938133 18.050690 -13.648174 1.491347 -12.414155 8.571318 -0.000085 0.000013 -50.872314 -2.374033 7.233796 -0.000002 -44.326080 -0.000101 109.883284 -1.221647 -2.025349 -0.000003 -43.324326 -0.000175 -14.158608 0.495108 -18.359589 0.000002 -7.938134 18.050690 -13.901900 -1.449603 15.087239 0.000000 10.422823 -1.158097 8.538028 -1.603759 0.052804 -2.032677 -0.709370 -0.078477 -0.000000 10.579564 -0.000440 3.787751 -0.709361 -0.078550 0.000000 10.567771 -0.000441 8.677807 -0.535240 -0.008975 3.218382 8.290513 0.000002 -0.957994 -0.743713 -6.031032 -9.900004 -5.328290 -78.035956 36.719322 -54.023429 14.196349 1.887315 11.458636 5.456508 -3.218383 8.290515 0.000002 -4.570363 1.476746 7.259590 -16.593934 10.067232 78.080243 37.939109 56.252004 -8.665754 7.741990 -12.750136 2.310491 -0.000001 14.789472 -0.000002 20.163987 3.225201 -1.774855 -0.000001 9.838810 0.000951 1.465153 6.434511 -2.276945 
11.530400 59.727631 -42.362831 -28.052304 -10.361064 -4.294543 -8.571317 0.002251 -0.000251 -49.308433 -1.512888 -1.522074 0.000001 -44.326080 -0.000097 100.508078 -0.000858 0.280230 0.000000 -43.324329 -0.000175 -9.610334 7.218610 8.499253 -0.000001 -7.938132 18.050688 -13.668401 1.494613 -12.422694 8.571318 -0.000084 0.000005 -50.891265 -2.334566 7.252253 -0.000002 -44.326084 -0.000100 109.892648 -1.209463 -1.990836 -0.000002 -43.324326 -0.000175 -14.169280 0.483376 -18.357260 -0.000002 -7.938134 18.050688 -13.891679 -1.448515 15.096364 0.000001 10.422819 -1.158093 8.541656 -1.609628 0.058179 -2.031088 -0.712294 -0.076496 -0.000000 10.579566 -0.000441 3.789345 -0.712286 -0.076569 -0.000001 10.567749 -0.000437 8.679000 -0.537284 -0.007292 3.218381 8.290516 0.000004 -0.931866 -0.682451 -6.003265 -9.912860 -5.245313 -78.002980 35.229108 -54.337413 12.932216 1.943445 11.502413 5.704220 -3.218382 8.290527 0.000004 -4.578371 1.477362 7.252398 -16.586348 10.081456 78.065060 37.729162 56.292824 -8.481504 7.735156 -12.636659 2.249989 0.000001 14.789474 0.000004 20.141577 3.223382 -1.777073 0.000001 9.838799 0.000958 1.423585 6.432301 -2.280502 
11.531665 59.722710 -42.361210 -28.041099 -10.357442 -4.301718 -8.571318 0.002242 -0.000251 -49.311743 -1.521035 -1.524434 0.000000 -44.326077 -0.000100 100.496207 -0.009041 0.282739 -0.000000 -43.324329 -0.000176 -9.583821 7.233693 8.505651 -0.000002 -7.938132 18.050686 -13.690006 1.497942 -12.430455 8.571320 -0.000093 0.000010 -50.912052 -2.295493 7.271600 -0.000001 -44.326080 -0.000101 109.903201 -1.195630 -1.954341 -0.000002 -43.324329 -0.000180 -14.179676 0.471493 -18.354863 0.000002 -7.938132 18.050684 -13.882194 -1.447540 15.105399 0.000002 10.422824 -1.158093 8.546866 -1.615549 0.064886 -2.028810 -0.715324 -0.073938 -0.000001 10.579566 -0.000443 3.791626 -0.715317 -0.074012 0.000001 10.567752 -0.000445 8.680710 -0.539371 -0.005172 3.218382 8.290512 -0.000000 -0.908581 -0.620018 -5.973040 -9.929583 -5.163063 -77.965995 33.770774 -54.650823 11.661502 2.065538 11.613681 5.763320 -3.218382 8.290528 0.000004 -4.585789 1.477211 7.247476 -16.579903 10.102204 78.058243 37.623335 56.327976 -8.401677 7.733405 -12.571298 2.228789 -0.000002 14.789477 0.000001 20.115180 3.224512 -1.781487 -0.000000 9.838811 0.000952 1.374736 6.436232 -2.287010 
11.532833 59.718262 -42.359573 -28.029201 -10.353800 -4.307898 -8.571320 0.002251 -0.000245 -49.315277 -1.526726 -1.525828 -0.000001 -44.326084 -0.000102 100.483967 -0.012819 0.286083 0.000000 -43.324333 -0.000174 -9.558045 7.245061 8.509343 -0.000001 -7.938132 18.050688 -13.710871 1.500888 -12.435725 8.571316 -0.000075 0.000009 -50.931348 -2.266339 7.292652 0.000002 -44.326073 -0.000099 109.912838 -1.185578 -1.928705 -0.000002 -43.324329 -0.000177 -14.190072 0.460334 -18.353306 0.000004 -7.938133 18.050686 -13.871812 -1.446417 15.115333 0.000000 10.422831 -1.158090 8.551839 -1.621837 0.070200 -2.026625 -0.718429 -0.072014 -0.000000 10.579564 -0.000438 3.793809 -0.718420 -0.072089 0.000002 10.567755 -0.000439 8.682346 -0.541553 -0.003522 3.218381 8.290496 -0.000003 -0.889926 -0.568975 -5.946545 -9.945355 -5.066668 -77.930922 32.506790 -54.923532 10.571172 2.274742 11.794560 5.622330 -3.218385 8.290502 -0.000004 -4.591521 1.478356 7.244806 -16.575800 10.114322 78.058892 37.575019 56.353760 -8.369245 7.732134 -12.519885 2.208645 -0.000003 14.789464 -0.000004 20.089577 3.225194 -1.783096 0.000001 9.838801 0.000942 1.327188 6.438475 -2.288543 
11.533860 59.714935 -42.357712 -28.014986 -10.350285 -4.312754 -8.571319 0.002242 -0.000250 -49.319304 -1.529438 -1.525647 0.000001 -44.326080 -0.000099 100.469870 -0.007755 0.290814 0.000000 -43.324326 -0.000178 -9.531731 7.249680 8.507861 -0.000001 -7.938132 18.050688 -13.731912 1.503412 -12.437362 8.571316 -0.000090 0.000011 -50.949048 -2.248952 7.318405 0.000001 -44.326080 -0.000098 109.920632 -1.178846 -1.916925 -0.000002 -43.324322 -0.000176 -14.201762 0.449611 -18.354470 0.000002 -7.938131 18.050690 -13.858817 -1.444981 15.127921 -0.000000 10.422819 -1.158091 8.556249 -1.629780 0.073384 -2.024685 -0.722127 -0.071133 -0.000002 10.579542 -0.000447 3.795749 -0.722119 -0.071207 0.000000 10.567753 -0.000446 8.683803 -0.544255 -0.002606 3.218382 8.290534 -0.000002 -0.876987 -0.536161 -5.925590 -9.957959 -4.938976 -77.901511 31.439709 -55.165457 9.667292 2.610928 12.066111 5.261048 -3.218383 8.290510 0.000001 -4.594691 1.481560 7.245514 -16.576282 10.108979 78.070066 37.593324 56.366443 -8.383548 7.729960 -12.473935 2.174795 0.000001 14.789469 -0.000002 20.064101 3.225244 -1.780375 0.000001 9.838807 0.000956 1.279590 6.438263 -2.282329 
